<?xml version="1.0" standalone="no"?>
<!DOCTYPE svg PUBLIC "-//W3C//DTD SVG 20010904//EN"
 "http://www.w3.org/TR/2001/REC-SVG-20010904/DTD/svg10.dtd">
<svg version="1.0" xmlns="http://www.w3.org/2000/svg"
 width="160.000000pt" height="160.000000pt" viewBox="0 0 160.000000 160.000000"
 preserveAspectRatio="xMidYMid meet">
<metadata>
Created by potrace 1.14, written by Peter Selinger 2001-2017
</metadata>
<g transform="translate(0.000000,160.000000) scale(0.100000,-0.100000)"
fill="#000000" stroke="none">
<path d="M530 1503 c-14 -9 -29 -23 -34 -31 -31 -52 -76 -65 -121 -36 -27 18
-80 16 -111 -4 -31 -18 -47 -64 -41 -113 4 -35 1 -46 -19 -66 -13 -12 -33 -23
-44 -23 -51 0 -109 -56 -105 -100 1 -8 3 -23 3 -32 1 -9 16 -32 32 -50 38 -42
38 -76 0 -119 -16 -19 -30 -38 -31 -44 0 -5 -2 -18 -4 -29 -5 -25 8 -56 35
-84 18 -19 19 -23 6 -28 -9 -3 -16 -10 -16 -16 0 -5 -6 -16 -14 -24 -8 -8 -25
-40 -37 -71 -18 -46 -23 -78 -23 -153 0 -87 2 -101 32 -161 38 -78 100 -145
174 -187 82 -46 122 -53 293 -51 55 0 123 0 150 -1 28 -1 61 -2 75 -2 14 0 66
1 115 1 50 0 124 0 165 0 206 -1 317 39 435 157 127 127 183 329 139 503 -51
203 -226 367 -422 397 -26 4 -46 13 -50 22 -12 33 -39 53 -89 68 -28 8 -56 20
-61 27 -6 7 -10 40 -9 74 2 68 -12 92 -64 113 -24 10 -38 9 -78 -4 -72 -23
-82 -21 -126 30 -34 39 -46 46 -85 50 -32 3 -53 -1 -70 -13z"/>
</g>
</svg>
